<svg xmlns="http://www.w3.org/2000/svg" fill="none" viewBox="0 0 348 348"><path d="M169.227 11.11 284 125l-37 37-37-37-37 37-36-36 37-37-41.596-41.596Z" style="display:inline;fill:#fff;stroke:#000;stroke-width:2;fill-opacity:1"/><path d="m209.938 283.407 115.48-116.01-36.116-37.707-43.364 43.717-37-37-36 36 37 37-37 37zM127.684 52.036 11.322 166.81l37.883 38.238 42.48-43.01 37 37 36-36-37-37 37-37z" style="display:inline;fill:#fff;stroke:#000;stroke-width:2;fill-opacity:1"/><path d="M167.607 324.813 53.364 210.747l37-37 37 37 37-37 36 36-37 37 40.889 41.066z" style="display:inline;fill:#fff;stroke:#000;stroke-width:2;fill-opacity:1"/><text xml:space="preserve" x="190.307" y="104.5" style="font-size:42.6667px;fill:none;stroke:#000;stroke-width:2"><tspan x="190.307" y="104.5" style="font-size:42.6667px;fill:#000;fill-opacity:1">1</tspan></text><text xml:space="preserve" x="85.265" y="145.125" style="font-size:42.6667px;fill:none;stroke:#000;stroke-width:2"><tspan x="85.265" y="145.125" style="font-size:42.6667px;fill:#000;fill-opacity:1">2</tspan></text><text xml:space="preserve" x="227.577" y="221.125" style="font-size:42.6667px;fill:none;stroke:#000;stroke-width:2"><tspan x="227.577" y="221.125" style="font-size:42.6667px;fill:#000;fill-opacity:1">3</tspan></text><text xml:space="preserve" x="122.015" y="257.5" style="font-size:42.6667px;fill:#000;fill-opacity:1;stroke:#000;stroke-width:2"><tspan x="122.015" y="257.5">4</tspan></text></svg>