<svg xmlns="http://www.w3.org/2000/svg" fill="none" viewBox="0 0 348 348"><path d="M167.493 11.11 52.72 125l37 37 37-37 37 37 36-36-37-37 41.596-41.596z" style="display:inline;fill:#fff;stroke:#000;stroke-width:2;fill-opacity:1"/><path d="m126.782 283.407-115.48-116.01 36.116-37.707 43.364 43.717 37-37 36 36-37 37 37 37zM209.036 52.036 325.4 166.81l-37.884 38.238-42.48-43.01-37 37-36-36 37-37-37-37z" style="display:inline;fill:#fff;stroke:#000;stroke-width:2;fill-opacity:1"/><path d="m169.114 324.813 114.242-114.066-37-37-37 37-37-37-36 36 37 37-40.889 41.066z" style="display:inline;fill:#fff;stroke:#000;stroke-width:2;fill-opacity:1"/><text xml:space="preserve" x="121.539" y="105.5" style="font-size:42.6667px;fill:none;stroke:#000;stroke-width:2"><tspan x="121.539" y="105.5" style="font-size:42.6667px;fill:#000;fill-opacity:1">1</tspan></text><text xml:space="preserve" x="224.747" y="148.125" style="font-size:42.6667px;fill:none;stroke:#000;stroke-width:2"><tspan x="224.747" y="148.125" style="font-size:42.6667px;fill:#000;fill-opacity:1">2</tspan></text><text xml:space="preserve" x="81.747" y="220.625" style="font-size:42.6667px;fill:none;stroke:#000;stroke-width:2"><tspan x="81.747" y="220.625" style="font-size:42.6667px;fill:#000;fill-opacity:1">3</tspan></text><text xml:space="preserve" x="188.039" y="258.5" style="font-size:42.6667px;fill:#000;fill-opacity:1;stroke:#000;stroke-width:2"><tspan x="188.039" y="258.5">4</tspan></text></svg>